<?xml version="1.0" encoding="utf-8"?>
<!-- Generator: Adobe Illustrator 16.0.0, SVG Export Plug-In . SVG Version: 6.00 Build 0)  -->
<!DOCTYPE svg PUBLIC "-//W3C//DTD SVG 1.1//EN" "http://www.w3.org/Graphics/SVG/1.1/DTD/svg11.dtd" [
	<!ENTITY ns_extend "http://ns.adobe.com/Extensibility/1.0/">
	<!ENTITY ns_ai "http://ns.adobe.com/AdobeIllustrator/10.0/">
	<!ENTITY ns_graphs "http://ns.adobe.com/Graphs/1.0/">
	<!ENTITY ns_vars "http://ns.adobe.com/Variables/1.0/">
	<!ENTITY ns_imrep "http://ns.adobe.com/ImageReplacement/1.0/">
	<!ENTITY ns_sfw "http://ns.adobe.com/SaveForWeb/1.0/">
	<!ENTITY ns_custom "http://ns.adobe.com/GenericCustomNamespace/1.0/">
	<!ENTITY ns_adobe_xpath "http://ns.adobe.com/XPath/1.0/">
]>
<svg version="1.1" id="Layer_1" xmlns:x="&ns_extend;" xmlns:i="&ns_ai;" xmlns:graph="&ns_graphs;"
	 xmlns="http://www.w3.org/2000/svg" xmlns:xlink="http://www.w3.org/1999/xlink" x="0px" y="0px" width="170px" height="184px"
	 viewBox="0 0 170 184" enable-background="new 0 0 170 184" xml:space="preserve">
<metadata>
	<sfw  xmlns="&ns_sfw;">
		<slices>
			
				<slice  height="184" width="170" type="1" name="" sliceID="33614" background="none" vertAlign="1" horzAlign="1" cellTextIsHTML="false" altTag="" message="" target="" url="" groupID="1242629963" y="169" x="149">
				<cellText>
					<![CDATA[]]>
				</cellText>
			</slice>
		</slices>
		<sliceSourceBounds  height="500" width="500" y="0" x="0" bottomLeftOrigin="true"></sliceSourceBounds>
		<optimizationSettings>
			<targetSettings  targetSettingsID="0" fileFormat="PNG24Format">
				<PNG24Format  transparency="true" noMatteColor="false" matteColor="#FFFFFF" interlaced="false" filtered="false">
					</PNG24Format>
			</targetSettings>
			<targetSettings  targetSettingsID="1242629963" fileFormat="PNG24Format">
				<PNG24Format  transparency="true" noMatteColor="false" matteColor="#FFFFFF" interlaced="false" filtered="false">
					</PNG24Format>
			</targetSettings>
		</optimizationSettings>
	</sfw>
</metadata>
<g>
	<defs>
		<rect id="SVGID_1_" x="-149" y="-147" width="500" height="500"/>
	</defs>
	<clipPath id="SVGID_2_">
		<use xlink:href="#SVGID_1_"  overflow="visible"/>
	</clipPath>
	<g clip-path="url(#SVGID_2_)">
		<defs>
			<rect id="SVGID_3_" x="-149" y="-147" width="500" height="500"/>
		</defs>
		<clipPath id="SVGID_4_">
			<use xlink:href="#SVGID_3_"  overflow="visible"/>
		</clipPath>
		<g opacity="0.75" clip-path="url(#SVGID_4_)">
			<g>
				<defs>
					<path id="SVGID_5_" d="M61,174L61,174z"/>
				</defs>
				<clipPath id="SVGID_6_">
					<use xlink:href="#SVGID_5_"  overflow="visible"/>
				</clipPath>
			</g>
		</g>
		<g opacity="0.75" clip-path="url(#SVGID_4_)">
			<g>
				<defs>
					<path id="SVGID_7_" d="M60,174L60,174z"/>
				</defs>
				<clipPath id="SVGID_8_">
					<use xlink:href="#SVGID_7_"  overflow="visible"/>
				</clipPath>
			</g>
		</g>
		<g opacity="0.75" clip-path="url(#SVGID_4_)">
			<g>
				<defs>
					<path id="SVGID_9_" d="M40.112,128.894L40.112,128.894z"/>
				</defs>
				<clipPath id="SVGID_10_">
					<use xlink:href="#SVGID_9_"  overflow="visible"/>
				</clipPath>
			</g>
		</g>
		<g opacity="0.75" clip-path="url(#SVGID_4_)">
			<g>
				<defs>
					<rect id="SVGID_11_" x="2" width="182" height="193"/>
				</defs>
				<clipPath id="SVGID_12_">
					<use xlink:href="#SVGID_11_"  overflow="visible"/>
				</clipPath>
				<g clip-path="url(#SVGID_12_)">
					<defs>
						<rect id="SVGID_13_" x="2" width="182" height="193"/>
					</defs>
					<clipPath id="SVGID_14_">
						<use xlink:href="#SVGID_13_"  overflow="visible"/>
					</clipPath>
				</g>
			</g>
		</g>
		<path clip-path="url(#SVGID_4_)" fill="#FFFFFF" stroke="#FFFFFF" stroke-width="14" stroke-miterlimit="10" d="M161.302,111.142
			c0.011-0.062,0.019-0.126,0.026-0.188c0.01-0.086-0.155-0.172-0.151-0.258c0.002-0.058-0.177-0.113-0.177-0.17v-0.028
			c0-0.058,0.177-0.114,0.173-0.171c-0.005-0.088,0.069-0.175,0.056-0.264c-0.008-0.059,0.028-0.117,0.018-0.177
			c-0.01-0.049,0.005-0.098-0.006-0.146c-0.01-0.043-0.016-0.083-0.027-0.125c-0.031-0.112-0.056-0.225-0.098-0.333
			c-0.002-0.003,0.001-0.006-0.001-0.01c-0.005-0.014-0.013-0.024-0.019-0.038c-0.01-0.025-0.021-0.049-0.033-0.073
			c-0.023-0.057-0.05-0.11-0.076-0.165c-0.046-0.094-0.098-0.186-0.152-0.275c-0.031-0.051-0.062-0.1-0.096-0.147
			c-0.024-0.035-0.044-0.07-0.069-0.104c-0.069-0.094-0.149-0.181-0.229-0.269c-0.037-0.04-0.07-0.084-0.108-0.123
			c-0.01-0.009-0.017-0.021-0.027-0.03c-0.01-0.01-0.021-0.017-0.031-0.027c-0.039-0.037-0.082-0.067-0.121-0.102
			c-0.091-0.078-0.18-0.156-0.274-0.223c-0.037-0.026-0.075-0.048-0.112-0.071c-0.048-0.032-0.097-0.062-0.147-0.09
			c-0.088-0.053-0.177-0.1-0.27-0.143c-0.061-0.028-0.122-0.056-0.184-0.081c-0.022-0.009-0.043-0.02-0.065-0.027
			c-0.014-0.005-0.024-0.015-0.039-0.02c-0.004-0.001-0.007-0.002-0.01-0.003c-0.102-0.036-0.206-0.061-0.31-0.088
			c-0.054-0.014-0.104-0.033-0.158-0.044c-0.043-0.01-0.087-0.014-0.131-0.021c-0.067-0.012-0.133-0.019-0.2-0.025
			c-0.08-0.009-0.159-0.021-0.24-0.024c-0.063-0.003-0.128,0.001-0.192,0.002c-0.065,0.001-0.13-0.002-0.194,0.003
			c-0.08,0.006-0.159,0.019-0.238,0.029c-0.068,0.009-0.136,0.019-0.205,0.032c-0.044,0.009-0.089,0.013-0.133,0.023
			c-0.048,0.013-0.094,0.03-0.141,0.045c-0.11,0.03-0.221,0.059-0.327,0.101l-8.462,3.32l-89.646,35.176L47.98,121.99L99.733,18.907
			l45.803,76.91c0.988,1.662,3.137,2.204,4.798,1.217c1.661-0.989,2.205-3.137,1.216-4.799L102.479,9.837
			c-0.654-1.099-1.847-1.745-3.132-1.707c-1.278,0.046-2.429,0.785-3.003,1.927L40.984,120.323
			c-0.469,0.934-0.496,2.027-0.075,2.982l11.042,25.042l-39.232,15.395c-1.8,0.706-2.686,2.737-1.98,4.536
			c0.541,1.38,1.862,2.223,3.259,2.223c0.425,0,0.858-0.078,1.277-0.243l39.502-15.5l6.02,13.904C61.357,169.931,62.613,171,64,171
			h73.225h0.012c0.182,0,0.361-0.264,0.54-0.292c0.042-0.007,0.082-0.146,0.123-0.154c0.132-0.024,0.263-0.114,0.39-0.153
			c0.082-0.026,0.159-0.095,0.239-0.127c0.083-0.032,0.168-0.076,0.249-0.115c0.081-0.04,0.154-0.099,0.232-0.145
			c0.074-0.043,0.15-0.086,0.222-0.135c0.066-0.046,0.126-0.103,0.188-0.154c0.074-0.06,0.152-0.115,0.222-0.182
			c0.055-0.052,0.101-0.111,0.151-0.166c0.07-0.075,0.143-0.147,0.206-0.229c0.054-0.069,0.099-0.147,0.147-0.223
			c0.05-0.075,0.104-0.145,0.148-0.225c0.088-0.159,0.165-0.325,0.229-0.5l20.623-56.449c0.041-0.115,0.069-0.232,0.1-0.348
			c0.01-0.039,0.023-0.076,0.033-0.116C161.289,111.24,161.294,111.19,161.302,111.142 M61.299,152.449l89.392-35.2l1.216-0.29
			L134.789,164H66.282L61.299,152.449z"/>
	</g>
	<path clip-path="url(#SVGID_2_)" fill="#FFFFFF" d="M75,206"/>
</g>
<rect id="_x3C_Slice_x3E_" fill="none" width="170" height="184"/>
</svg>
